<svg xmlns="http://www.w3.org/2000/svg" viewBox="0 0 920 300" font-family="Inter, ui-sans-serif, system-ui, -apple-system, BlinkMacSystemFont, 'Segoe UI', sans-serif">
  <defs>
    <linearGradient id="bg" x1="0" y1="0" x2="1" y2="1">
      <stop offset="0" stop-color="#0b1424"/>
      <stop offset="0.48" stop-color="#253549"/>
      <stop offset="1" stop-color="#102c2a"/>
    </linearGradient>
    <linearGradient id="panel" x1="0" y1="0" x2="1" y2="1">
      <stop offset="0" stop-color="#111f33" stop-opacity="0.96"/>
      <stop offset="1" stop-color="#172b40" stop-opacity="0.92"/>
    </linearGradient>
    <linearGradient id="device" x1="0" y1="0" x2="0" y2="1">
      <stop offset="0" stop-color="#677fa3"/>
      <stop offset="1" stop-color="#253549"/>
    </linearGradient>
    <linearGradient id="screen" x1="0" y1="0" x2="0" y2="1">
      <stop offset="0" stop-color="#12243a"/>
      <stop offset="1" stop-color="#07111f"/>
    </linearGradient>
    <linearGradient id="server" x1="0" y1="0" x2="0" y2="1">
      <stop offset="0" stop-color="#1b2f48"/>
      <stop offset="1" stop-color="#0d1b2e"/>
    </linearGradient>
    <linearGradient id="teal" x1="0" y1="0" x2="0" y2="1">
      <stop offset="0" stop-color="#5eead4"/>
      <stop offset="1" stop-color="#10b981"/>
    </linearGradient>
    <filter id="shadow" x="-18%" y="-18%" width="136%" height="140%">
      <feDropShadow dx="0" dy="18" stdDeviation="18" flood-color="#020617" flood-opacity="0.42"/>
    </filter>
    <filter id="glow" x="-30%" y="-30%" width="160%" height="160%">
      <feGaussianBlur stdDeviation="8" result="blur"/>
      <feMerge>
        <feMergeNode in="blur"/>
        <feMergeNode in="SourceGraphic"/>
      </feMerge>
    </filter>
  </defs>

  <rect width="920" height="300" rx="24" fill="url(#bg)"/>
  <circle cx="140" cy="58" r="100" fill="#10b981" opacity="0.08"/>
  <circle cx="792" cy="240" r="116" fill="#34d399" opacity="0.10"/>
  <rect x="26" y="24" width="868" height="252" rx="24" fill="url(#panel)" stroke="#455b7a" stroke-opacity="0.62"/>

  <g filter="url(#shadow)">
    <rect x="60" y="68" width="240" height="150" rx="18" fill="url(#device)"/>
    <rect x="74" y="82" width="212" height="122" rx="12" fill="url(#screen)" stroke="#7890b5" stroke-opacity="0.52"/>
    <rect x="74" y="82" width="212" height="23" rx="12" fill="#1e314c"/>
    <circle cx="91" cy="94" r="3.5" fill="#f87171"/>
    <circle cx="105" cy="94" r="3.5" fill="#fbbf24"/>
    <circle cx="119" cy="94" r="3.5" fill="#34d399"/>
    <rect x="96" y="122" width="74" height="56" rx="9" fill="#172a43" stroke="#455b7a"/>
    <rect x="111" y="136" width="45" height="6" rx="3" fill="#5eead4"/>
    <rect x="111" y="150" width="34" height="6" rx="3" fill="#93c5fd"/>
    <rect x="111" y="164" width="46" height="6" rx="3" fill="#677fa3"/>
    <rect x="188" y="122" width="74" height="56" rx="9" fill="#172a43" stroke="#455b7a"/>
    <path d="M207 151 l11 11 26 -31" fill="none" stroke="#34d399" stroke-width="7" stroke-linecap="round" stroke-linejoin="round"/>
    <rect x="44" y="218" width="272" height="15" rx="7.5" fill="#253549"/>
    <rect x="126" y="219" width="108" height="5" rx="2.5" fill="#7890b5" opacity="0.72"/>
  </g>
  <text x="180" y="260" text-anchor="middle" font-size="18" font-weight="800" fill="#f8fafc">Your device</text>
  <text x="180" y="282" text-anchor="middle" font-size="13" font-weight="750" fill="#5eead4">Encrypts locally</text>

  <path d="M328 148 H391" stroke="#5eead4" stroke-width="4" stroke-linecap="round" stroke-dasharray="10 8"/>
  <path d="M389 137 L413 148 L389 159 Z" fill="#5eead4" filter="url(#glow)"/>
  <rect x="319" y="105" width="96" height="31" rx="15.5" fill="#062f2d" stroke="#34d399"/>
  <text x="367" y="126" text-anchor="middle" font-size="12" font-weight="800" fill="#ccfbf1">ciphertext</text>

  <g filter="url(#shadow)">
    <rect x="414" y="56" width="184" height="186" rx="20" fill="url(#server)" stroke="#677fa3" stroke-opacity="0.58"/>
    <rect x="414" y="56" width="184" height="50" rx="20" fill="#455b7a"/>
    <rect x="414" y="87" width="184" height="20" fill="#455b7a"/>
    <text x="506" y="87" text-anchor="middle" fill="#ffffff" font-size="17" font-weight="850">Sync server</text>
    <rect x="438" y="124" width="136" height="25" rx="7" fill="#0b1728" stroke="#455b7a"/>
    <rect x="438" y="158" width="136" height="25" rx="7" fill="#0b1728" stroke="#455b7a"/>
    <rect x="438" y="192" width="136" height="25" rx="7" fill="#0b1728" stroke="#455b7a"/>
    <text x="506" y="141" text-anchor="middle" font-size="12" font-family="ui-monospace, SFMono-Regular, Menlo, Consolas, monospace" fill="#cbd5e1">8f2a...91dc</text>
    <text x="506" y="175" text-anchor="middle" font-size="12" font-family="ui-monospace, SFMono-Regular, Menlo, Consolas, monospace" fill="#cbd5e1">c7b1...4e08</text>
    <text x="506" y="209" text-anchor="middle" font-size="12" font-family="ui-monospace, SFMono-Regular, Menlo, Consolas, monospace" fill="#cbd5e1">a03d...bb62</text>
    <rect x="458" y="232" width="96" height="30" rx="15" fill="#2d171b" stroke="#f87171"/>
    <text x="506" y="252" text-anchor="middle" font-size="12" font-weight="900" fill="#fecaca">No keys</text>
  </g>

  <path d="M620 148 H683" stroke="#5eead4" stroke-width="4" stroke-linecap="round" stroke-dasharray="10 8"/>
  <path d="M681 137 L705 148 L681 159 Z" fill="#5eead4" filter="url(#glow)"/>
  <rect x="611" y="105" width="96" height="31" rx="15.5" fill="#062f2d" stroke="#34d399"/>
  <text x="659" y="126" text-anchor="middle" font-size="12" font-weight="800" fill="#ccfbf1">ciphertext</text>

  <g filter="url(#shadow)">
    <rect x="724" y="46" width="128" height="210" rx="30" fill="url(#device)"/>
    <rect x="737" y="64" width="102" height="174" rx="19" fill="url(#screen)" stroke="#7890b5" stroke-opacity="0.52"/>
    <rect x="768" y="55" width="40" height="8" rx="4" fill="#07111f"/>
    <rect x="752" y="90" width="72" height="32" rx="9" fill="#172a43" stroke="#455b7a"/>
    <rect x="764" y="103" width="48" height="6" rx="3" fill="#5eead4"/>
    <rect x="752" y="134" width="72" height="54" rx="9" fill="#172a43" stroke="#455b7a"/>
    <circle cx="768" cy="151" r="6" fill="#93c5fd"/>
    <rect x="781" y="147" width="31" height="5" rx="2.5" fill="#cbd5e1"/>
    <circle cx="768" cy="171" r="6" fill="#677fa3"/>
    <rect x="781" y="167" width="31" height="5" rx="2.5" fill="#cbd5e1"/>
    <rect x="771" y="205" width="34" height="5" rx="2.5" fill="#7890b5"/>
    <rect x="771" y="219" width="34" height="4" rx="2" fill="#455b7a"/>
  </g>
  <text x="788" y="260" text-anchor="middle" font-size="18" font-weight="800" fill="#f8fafc">Your device</text>
  <text x="788" y="282" text-anchor="middle" font-size="13" font-weight="750" fill="#5eead4">Decrypts locally</text>
</svg>
