<svg xmlns="http://www.w3.org/2000/svg" viewBox="0 0 860 300" font-family="system-ui, -apple-system, 'Segoe UI', Helvetica, sans-serif">
  <defs>
    <linearGradient id="bgGrad" x1="0%" y1="0%" x2="100%" y2="100%">
      <stop offset="0%" stop-color="#f8fafc"/>
      <stop offset="100%" stop-color="#f0fdf4"/>
    </linearGradient>
    <linearGradient id="bgGradDark" x1="0%" y1="0%" x2="100%" y2="100%">
      <stop offset="0%" stop-color="#111827"/>
      <stop offset="100%" stop-color="#0f1a14"/>
    </linearGradient>
    <linearGradient id="navyGrad" x1="0%" y1="0%" x2="0%" y2="100%">
      <stop offset="0%" stop-color="#455B7A"/>
      <stop offset="100%" stop-color="#253549"/>
    </linearGradient>
    <linearGradient id="navyGradDark" x1="0%" y1="0%" x2="0%" y2="100%">
      <stop offset="0%" stop-color="#677FA3"/>
      <stop offset="100%" stop-color="#455B7A"/>
    </linearGradient>
    <linearGradient id="tealGrad" x1="0%" y1="0%" x2="0%" y2="100%">
      <stop offset="0%" stop-color="#34d399"/>
      <stop offset="100%" stop-color="#10b981"/>
    </linearGradient>
    <linearGradient id="screenGrad" x1="0%" y1="0%" x2="0%" y2="100%">
      <stop offset="0%" stop-color="#eff6ff"/>
      <stop offset="100%" stop-color="#dbeafe"/>
    </linearGradient>
    <linearGradient id="screenGradDark" x1="0%" y1="0%" x2="0%" y2="100%">
      <stop offset="0%" stop-color="#1e293b"/>
      <stop offset="100%" stop-color="#1e3a5f"/>
    </linearGradient>
    <filter id="shadow" x="-5%" y="-5%" width="110%" height="118%">
      <feDropShadow dx="0" dy="3" stdDeviation="5" flood-opacity="0.10"/>
    </filter>
  </defs>

  <style>
    .bg { fill: url(#bgGrad); }
    .device-fill { fill: url(#navyGrad); }
    .screen-fill { fill: url(#screenGrad); }
    .server-body { fill: white; stroke: #e2e8f0; stroke-width: 1; }
    .server-header { fill: url(#navyGrad); }
    .server-row { fill: #f1f5f9; stroke: #e2e8f0; stroke-width: 0.7; }
    .cipher-text { fill: #94a3b8; }
    .no-keys-bg { fill: #fef2f2; stroke: #fca5a5; stroke-width: 0.7; }
    .no-keys-text { fill: #dc2626; }
    .label-main { fill: #1e293b; }
    .label-teal { fill: #059669; }
    .label-sub { fill: #64748b; }
    .callout-bg { fill: #ecfdf5; }
    .callout-text { fill: #059669; }
    .dot-cal { fill: #c7d2fe; opacity: 0.7; }
    .dot-task { fill: #bbf7d0; opacity: 0.6; }
    .keyboard { fill: #e2e8f0; }
    .keyboard-track { fill: #cbd5e1; }
    .home-ind { fill: #94a3b8; }
    .arrow-bg { fill: #ecfdf5; stroke: #10b981; stroke-width: 1; }
    .arrow-text { fill: #059669; }

    @media (prefers-color-scheme: dark) {
      .bg { fill: url(#bgGradDark); }
      .device-fill { fill: url(#navyGradDark); }
      .screen-fill { fill: url(#screenGradDark); }
      .server-body { fill: #1f2937; stroke: #374151; stroke-width: 1; }
      .server-header { fill: url(#navyGradDark); }
      .server-row { fill: #111827; stroke: #374151; stroke-width: 0.7; }
      .cipher-text { fill: #6b7280; }
      .no-keys-bg { fill: #450a0a; stroke: #7f1d1d; stroke-width: 0.7; }
      .no-keys-text { fill: #fca5a5; }
      .label-main { fill: #f1f5f9; }
      .label-teal { fill: #34d399; }
      .label-sub { fill: #94a3b8; }
      .callout-bg { fill: #064e3b; }
      .callout-text { fill: #34d399; }
      .dot-cal { fill: #3b4f7a; opacity: 0.7; }
      .dot-task { fill: #2d5a3d; opacity: 0.6; }
      .keyboard { fill: #374151; }
      .keyboard-track { fill: #4b5563; }
      .home-ind { fill: #6b7280; }
      .arrow-bg { fill: #064e3b; stroke: #34d399; stroke-width: 1; }
      .arrow-text { fill: #34d399; }
    }
  </style>

  <!-- Background -->
  <rect class="bg" width="860" height="300" rx="16"/>

  <!-- ====== LEFT DEVICE (laptop) ====== -->
  <g filter="url(#shadow)">
    <rect class="device-fill" x="40" y="55" width="200" height="130" rx="10"/>
    <rect class="screen-fill" x="48" y="63" width="184" height="106" rx="6"/>
    <!-- Lock icon centered at x=140 -->
    <rect x="125" y="90" width="30" height="24" rx="5" fill="url(#tealGrad)"/>
    <path d="M132 90 V82 A8 8 0 0 1 148 82 V90" fill="none" stroke="#10b981" stroke-width="3" stroke-linecap="round"/>
    <circle cx="140" cy="101" r="3" fill="white"/>
    <!-- Calendar dots -->
    <rect class="dot-cal" x="58" y="128" width="22" height="6" rx="2"/>
    <rect class="dot-cal" x="84" y="128" width="22" height="6" rx="2"/>
    <rect class="dot-cal" x="110" y="128" width="22" height="6" rx="2"/>
    <rect class="dot-task" x="58" y="140" width="44" height="6" rx="2"/>
    <rect class="dot-task" x="106" y="140" width="44" height="6" rx="2"/>
    <!-- Keyboard -->
    <path class="keyboard" d="M30 185 L250 185 L240 200 L40 200 Z"/>
    <rect class="keyboard-track" x="95" y="185" width="80" height="5" rx="2"/>
  </g>
  <text class="label-main" x="140" y="222" text-anchor="middle" font-size="13.5" font-weight="600">Your Device</text>
  <text class="label-teal" x="140" y="240" text-anchor="middle" font-size="11.5" font-weight="500">Encrypt locally</text>

  <!-- ====== ARROW LEFT → CENTER ====== -->
  <line x1="258" y1="135" x2="338" y2="135" stroke="#10b981" stroke-width="2.5" stroke-dasharray="7 4"/>
  <polygon points="336,129 348,135 336,141" fill="#10b981"/>
  <rect class="arrow-bg" x="268" y="109" width="72" height="22" rx="11"/>
  <text class="arrow-text" x="304" y="124" text-anchor="middle" font-size="9.5" font-weight="600" font-family="'SFMono-Regular', Consolas, 'Liberation Mono', Menlo, monospace">ciphertext</text>

  <!-- ====== CENTER SERVER ====== -->
  <g filter="url(#shadow)">
    <rect class="server-body" x="355" y="48" width="160" height="175" rx="12"/>
    <rect class="server-header" x="355" y="48" width="160" height="38" rx="12"/>
    <rect class="server-header" x="355" y="74" width="160" height="12"/>
    <text x="435" y="73" text-anchor="middle" fill="white" font-size="12.5" font-weight="600">Server</text>
    <!-- Server rack -->
    <rect class="server-row" x="375" y="100" width="120" height="18" rx="4"/>
    <rect class="server-row" x="375" y="122" width="120" height="18" rx="4"/>
    <rect class="server-row" x="375" y="144" width="120" height="18" rx="4"/>
    <rect class="server-row" x="375" y="166" width="120" height="18" rx="4"/>
    <!-- Ciphertext content -->
    <text class="cipher-text" x="435" y="114" text-anchor="middle" font-size="9" font-family="'SFMono-Regular', Consolas, 'Liberation Mono', Menlo, monospace">a7f3&#x2026;b2c1</text>
    <text class="cipher-text" x="435" y="136" text-anchor="middle" font-size="9" font-family="'SFMono-Regular', Consolas, 'Liberation Mono', Menlo, monospace">9e2d&#x2026;4f8a</text>
    <text class="cipher-text" x="435" y="158" text-anchor="middle" font-size="9" font-family="'SFMono-Regular', Consolas, 'Liberation Mono', Menlo, monospace">c1b8&#x2026;e3d7</text>
    <text class="cipher-text" x="435" y="180" text-anchor="middle" font-size="9" font-family="'SFMono-Regular', Consolas, 'Liberation Mono', Menlo, monospace">5f9a&#x2026;d2c4</text>
    <!-- No-keys badge -->
    <rect class="no-keys-bg" x="395" y="198" width="80" height="18" rx="9"/>
    <text class="no-keys-text" x="435" y="211" text-anchor="middle" font-size="9" font-weight="600">No keys</text>
  </g>

  <!-- ====== ARROW CENTER → RIGHT ====== -->
  <line x1="528" y1="135" x2="608" y2="135" stroke="#10b981" stroke-width="2.5" stroke-dasharray="7 4"/>
  <polygon points="606,129 618,135 606,141" fill="#10b981"/>
  <rect class="arrow-bg" x="538" y="109" width="72" height="22" rx="11"/>
  <text class="arrow-text" x="574" y="124" text-anchor="middle" font-size="9.5" font-weight="600" font-family="'SFMono-Regular', Consolas, 'Liberation Mono', Menlo, monospace">ciphertext</text>

  <!-- ====== RIGHT DEVICE (phone) ====== -->
  <g filter="url(#shadow)">
    <rect class="device-fill" x="625" y="55" width="110" height="195" rx="16"/>
    <rect class="screen-fill" x="633" y="72" width="94" height="155" rx="10"/>
    <!-- Notch -->
    <rect x="663" y="62" width="34" height="8" rx="4" fill="#1B2838"/>
    <!-- Unlock icon centered at x=680 -->
    <rect x="665" y="98" width="30" height="24" rx="5" fill="url(#tealGrad)"/>
    <path d="M679 98 V90 A8 8 0 0 1 695 90 V98" fill="none" stroke="#10b981" stroke-width="3" stroke-linecap="round"/>
    <circle cx="675" cy="109" r="3" fill="white"/>
    <!-- Calendar dots -->
    <rect class="dot-cal" x="645" y="140" width="22" height="6" rx="2"/>
    <rect class="dot-cal" x="671" y="140" width="22" height="6" rx="2"/>
    <rect class="dot-task" x="645" y="152" width="44" height="6" rx="2"/>
    <!-- Home indicator -->
    <rect class="home-ind" x="663" y="222" width="34" height="4" rx="2"/>
  </g>
  <text class="label-teal" x="680" y="242" text-anchor="middle" font-size="11.5" font-weight="500">Decrypt locally</text>
  <text class="label-sub" x="680" y="258" text-anchor="middle" font-size="9.5">with your key</text>

  <!-- ====== BOTTOM CALLOUT ====== -->
  <rect class="callout-bg" x="210" y="276" width="440" height="16" rx="8"/>
  <text class="callout-text" x="430" y="289" text-anchor="middle" font-size="12" font-weight="600">The server never has your keys &#x2014; it never sees your plaintext.</text>
</svg>