<svg xmlns="http://www.w3.org/2000/svg" viewBox="0 0 200 200" width="200" height="200">
  <defs>
    <linearGradient id="shieldGrad" x1="0%" y1="0%" x2="100%" y2="100%">
      <stop offset="0%" stop-color="#455B7A"/>
      <stop offset="100%" stop-color="#253549"/>
    </linearGradient>
    <linearGradient id="tealGrad" x1="0%" y1="0%" x2="0%" y2="100%">
      <stop offset="0%" stop-color="#34d399"/>
      <stop offset="100%" stop-color="#10b981"/>
    </linearGradient>
  </defs>
  <!-- Shield -->
  <path d="M100 20 L170 55 L170 115 Q170 165 100 185 Q30 165 30 115 L30 55 Z" fill="url(#shieldGrad)"/>
  <!-- Inner shield highlight -->
  <path d="M100 30 L160 60 L160 112 Q160 155 100 173 Q40 155 40 112 L40 60 Z" fill="none" stroke="#677FA3" stroke-width="0.8" opacity="0.4"/>
  <!-- Lock body -->
  <rect x="78" y="100" width="44" height="36" rx="8" fill="url(#tealGrad)"/>
  <!-- Lock shackle -->
  <path d="M88 100 V86 A12 12 0 0 1 112 86 V100" fill="none" stroke="url(#tealGrad)" stroke-width="5" stroke-linecap="round"/>
  <!-- Keyhole -->
  <circle cx="100" cy="115" r="5" fill="white"/>
  <rect x="97.5" y="117" width="5" height="10" rx="2.5" fill="white"/>
</svg>
